{
	"patcher" : 	{
		"fileversion" : 1,
		"appversion" : 		{
			"major" : 9,
			"minor" : 0,
			"revision" : 7,
			"architecture" : "x64",
			"modernui" : 1
		}
,
		"classnamespace" : "box",
		"rect" : [ 0.0, 0.0, 1000.0, 780.0 ],
		"gridsize" : [ 15.0, 15.0 ],
		"boxes" : [ 			{
				"box" : 				{
					"autofit" : 1,
					"forceaspect" : 1,
					"id" : "obj-2",
					"maxclass" : "fpic",
					"numinlets" : 1,
					"numoutlets" : 1,
					"outlettype" : [ "jit_matrix" ],
					"patching_rect" : [ 68.181812167167664, 821.212048768997192, 385.279781699180603, 342.854607273918703 ],
					"pic" : "Aufgaben.png"
				}

			}
, 			{
				"box" : 				{
					"autofit" : 1,
					"forceaspect" : 1,
					"id" : "obj-1",
					"maxclass" : "fpic",
					"numinlets" : 1,
					"numoutlets" : 1,
					"outlettype" : [ "jit_matrix" ],
					"patching_rect" : [ 68.181812167167664, 18.181816577911377, 385.279781699180603, 775.563196926922046 ],
					"pic" : "midiKeyboard.jpg"
				}

			}
, 			{
				"box" : 				{
					"id" : "obj-96",
					"linecount" : 5,
					"maxclass" : "comment",
					"numinlets" : 1,
					"numoutlets" : 0,
					"patching_rect" : [ 534.932881414890289, 639.597343266010284, 150.0, 74.0 ],
					"text" : "die attack/relase time hab ich genau auf die ms von 1/16t beschränkt, in der hoffung dass das klicken dadurch verhindert wird"
				}

			}
, 			{
				"box" : 				{
					"id" : "obj-94",
					"maxclass" : "comment",
					"numinlets" : 1,
					"numoutlets" : 0,
					"patching_rect" : [ 1077.5, 570.0, 231.5, 20.0 ],
					"text" : "max delay time von ca 2 * 10s "
				}

			}
, 			{
				"box" : 				{
					"id" : "obj-90",
					"maxclass" : "comment",
					"numinlets" : 1,
					"numoutlets" : 0,
					"patching_rect" : [ 1077.5, 519.000015020370483, 231.5, 20.0 ],
					"text" : "wandelt zu signal für tapout~ delay time"
				}

			}
, 			{
				"box" : 				{
					"floatoutput" : 1,
					"id" : "obj-89",
					"maxclass" : "slider",
					"numinlets" : 1,
					"numoutlets" : 1,
					"outlettype" : [ "" ],
					"parameter_enable" : 0,
					"patching_rect" : [ 926.403500080108643, 391.5, 121.5, 21.0 ],
					"size" : 12.0
				}

			}
, 			{
				"box" : 				{
					"id" : "obj-84",
					"maxclass" : "comment",
					"numinlets" : 1,
					"numoutlets" : 0,
					"patching_rect" : [ 1077.419362545013428, 338.640216469764709, 150.0, 20.0 ],
					"text" : "für reset"
				}

			}
, 			{
				"box" : 				{
					"id" : "obj-82",
					"maxclass" : "comment",
					"numinlets" : 1,
					"numoutlets" : 0,
					"patching_rect" : [ 1077.125486880540848, 282.923102378845215, 189.0, 20.0 ],
					"text" : "10s Hoch-/Runterzählen"
				}

			}
, 			{
				"box" : 				{
					"id" : "obj-80",
					"maxclass" : "comment",
					"numinlets" : 1,
					"numoutlets" : 0,
					"patching_rect" : [ 1077.419362545013428, 254.46156120300293, 189.0, 20.0 ],
					"text" : "dass das line objekt konstant läuft"
				}

			}
, 			{
				"box" : 				{
					"id" : "obj-77",
					"linecount" : 5,
					"maxclass" : "comment",
					"numinlets" : 1,
					"numoutlets" : 0,
					"patching_rect" : [ 813.0, 723.868833065032959, 142.903500080108643, 74.0 ],
					"text" : "es war ein versuch wert; ich weiß nicht ganz wie ich die clicking sounds/noise weg bekomme"
				}

			}
, 			{
				"box" : 				{
					"id" : "obj-65",
					"maxclass" : "newobj",
					"numinlets" : 2,
					"numoutlets" : 1,
					"outlettype" : [ "float" ],
					"patching_rect" : [ 926.403500080108643, 337.640216469764709, 29.5, 22.0 ],
					"text" : "* 1."
				}

			}
, 			{
				"box" : 				{
					"id" : "obj-63",
					"maxclass" : "newobj",
					"numinlets" : 1,
					"numoutlets" : 1,
					"outlettype" : [ "" ],
					"patching_rect" : [ 627.795087337493896, 196.297284126281738, 80.0, 22.0 ],
					"text" : "loadmess 50."
				}

			}
, 			{
				"box" : 				{
					"format" : 6,
					"id" : "obj-59",
					"maxclass" : "flonum",
					"numinlets" : 1,
					"numoutlets" : 2,
					"outlettype" : [ "", "bang" ],
					"parameter_enable" : 0,
					"patching_rect" : [ 926.403500080108643, 488.684206008911133, 50.0, 22.0 ]
				}

			}
, 			{
				"box" : 				{
					"id" : "obj-55",
					"maxclass" : "newobj",
					"numinlets" : 1,
					"numoutlets" : 1,
					"outlettype" : [ "signal" ],
					"patching_rect" : [ 930.903500080108643, 518.000015020370483, 31.0, 22.0 ],
					"text" : "sig~"
				}

			}
, 			{
				"box" : 				{
					"id" : "obj-51",
					"maxclass" : "newobj",
					"numinlets" : 3,
					"numoutlets" : 2,
					"outlettype" : [ "", "bang" ],
					"patching_rect" : [ 926.403500080108643, 308.076951026916504, 40.0, 22.0 ],
					"text" : "line"
				}

			}
, 			{
				"box" : 				{
					"id" : "obj-47",
					"maxclass" : "newobj",
					"numinlets" : 2,
					"numoutlets" : 1,
					"outlettype" : [ "bang" ],
					"patching_rect" : [ 925.558106184005737, 253.46156120300293, 79.0, 22.0 ],
					"text" : "metro 20000."
				}

			}
, 			{
				"box" : 				{
					"id" : "obj-46",
					"maxclass" : "message",
					"numinlets" : 2,
					"numoutlets" : 1,
					"outlettype" : [ "" ],
					"patching_rect" : [ 925.558106184005737, 281.923102378845215, 135.0, 22.0 ],
					"text" : "0., 12. 10000. 0. 10000."
				}

			}
, 			{
				"box" : 				{
					"format" : 6,
					"id" : "obj-11",
					"maxclass" : "flonum",
					"numinlets" : 1,
					"numoutlets" : 2,
					"outlettype" : [ "", "bang" ],
					"parameter_enable" : 0,
					"patching_rect" : [ 926.403500080108643, 420.0, 50.0, 22.0 ]
				}

			}
, 			{
				"box" : 				{
					"id" : "obj-78",
					"linecount" : 2,
					"maxclass" : "comment",
					"numinlets" : 1,
					"numoutlets" : 0,
					"patching_rect" : [ 497.207022368907928, 190.797284126281738, 77.618017911911011, 33.0 ],
					"text" : "RESET BUTTON"
				}

			}
, 			{
				"box" : 				{
					"bgcolor" : [ 0.0, 0.0, 0.0, 1.0 ],
					"blinkcolor" : [ 1.0, 0.0, 0.0, 1.0 ],
					"id" : "obj-76",
					"maxclass" : "button",
					"numinlets" : 1,
					"numoutlets" : 1,
					"outlettype" : [ "bang" ],
					"outlinecolor" : [ 1.0, 0.0, 0.0, 1.0 ],
					"parameter_enable" : 0,
					"patching_rect" : [ 576.825040280818939, 191.856107950210571, 30.882352352142334, 30.882352352142334 ]
				}

			}
, 			{
				"box" : 				{
					"id" : "obj-57",
					"maxclass" : "comment",
					"numinlets" : 1,
					"numoutlets" : 0,
					"patching_rect" : [ 552.0, 529.0, 97.599551498889923, 20.0 ],
					"text" : "attack/release"
				}

			}
, 			{
				"box" : 				{
					"format" : 6,
					"id" : "obj-52",
					"maxclass" : "flonum",
					"numinlets" : 1,
					"numoutlets" : 2,
					"outlettype" : [ "", "bang" ],
					"parameter_enable" : 0,
					"patching_rect" : [ 534.932881414890289, 599.333351194858551, 111.325543820858002, 22.0 ]
				}

			}
, 			{
				"box" : 				{
					"id" : "obj-49",
					"maxclass" : "newobj",
					"numinlets" : 6,
					"numoutlets" : 1,
					"outlettype" : [ "" ],
					"patching_rect" : [ 534.932881414890289, 572.000017046928406, 111.325543820858002, 22.0 ],
					"text" : "scale 0. 1. 0. 500."
				}

			}
, 			{
				"box" : 				{
					"floatoutput" : 1,
					"id" : "obj-48",
					"maxclass" : "slider",
					"numinlets" : 1,
					"numoutlets" : 1,
					"outlettype" : [ "" ],
					"parameter_enable" : 0,
					"patching_rect" : [ 534.932881414890289, 555.333349883556366, 114.666670083999634, 12.333321213722229 ],
					"size" : 1.0
				}

			}
, 			{
				"box" : 				{
					"id" : "obj-33",
					"maxclass" : "newobj",
					"numinlets" : 1,
					"numoutlets" : 1,
					"outlettype" : [ "" ],
					"patching_rect" : [ 717.918001174926758, 196.297284126281738, 81.557374715805054, 22.0 ],
					"text" : "loadmess 0."
				}

			}
, 			{
				"box" : 				{
					"id" : "obj-107",
					"maxclass" : "comment",
					"numinlets" : 1,
					"numoutlets" : 0,
					"patching_rect" : [ 1077.419362545013428, 606.350871562957764, 150.0, 20.0 ],
					"text" : "variable delay time "
				}

			}
, 			{
				"box" : 				{
					"id" : "obj-106",
					"maxclass" : "comment",
					"numinlets" : 1,
					"numoutlets" : 0,
					"patching_rect" : [ 1077.419362545013428, 455.0, 205.5, 20.0 ],
					"text" : "rechnet x*1/16tel in ms um"
				}

			}
, 			{
				"box" : 				{
					"id" : "obj-105",
					"maxclass" : "comment",
					"numinlets" : 1,
					"numoutlets" : 0,
					"patching_rect" : [ 1077.419362545013428, 392.0, 150.0, 20.0 ],
					"text" : "1/16tel offset slider"
				}

			}
, 			{
				"box" : 				{
					"id" : "obj-103",
					"maxclass" : "newobj",
					"numinlets" : 1,
					"numoutlets" : 1,
					"outlettype" : [ "" ],
					"patching_rect" : [ 809.661518216133118, 196.297284126281738, 81.147538661956787, 22.0 ],
					"text" : "loadmess 1"
				}

			}
, 			{
				"box" : 				{
					"id" : "obj-102",
					"maxclass" : "newobj",
					"numinlets" : 2,
					"numoutlets" : 0,
					"patching_rect" : [ 695.827872276306152, 878.934401512145996, 55.0, 22.0 ],
					"text" : "dac~ 1 2"
				}

			}
, 			{
				"box" : 				{
					"id" : "obj-101",
					"lastchannelcount" : 0,
					"maxclass" : "live.gain~",
					"numinlets" : 2,
					"numoutlets" : 5,
					"outlettype" : [ "signal", "signal", "", "float", "list" ],
					"parameter_enable" : 1,
					"patching_rect" : [ 702.385249137878418, 692.868833065032959, 48.0, 136.0 ],
					"saved_attribute_attributes" : 					{
						"valueof" : 						{
							"parameter_longname" : "live.gain~[2]",
							"parameter_mmax" : 6.0,
							"parameter_mmin" : -70.0,
							"parameter_modmode" : 3,
							"parameter_shortname" : "live.gain~",
							"parameter_type" : 0,
							"parameter_unitstyle" : 4
						}

					}
,
					"varname" : "live.gain~"
				}

			}
, 			{
				"box" : 				{
					"id" : "obj-98",
					"maxclass" : "newobj",
					"numinlets" : 1,
					"numoutlets" : 1,
					"outlettype" : [ "signal" ],
					"patching_rect" : [ 890.43858814239502, 605.350871562957764, 49.0, 22.0 ],
					"text" : "tapout~"
				}

			}
, 			{
				"box" : 				{
					"id" : "obj-93",
					"maxclass" : "newobj",
					"numinlets" : 2,
					"numoutlets" : 1,
					"outlettype" : [ "float" ],
					"patching_rect" : [ 926.403500080108643, 454.0, 29.5, 22.0 ],
					"text" : "* 1."
				}

			}
, 			{
				"box" : 				{
					"id" : "obj-92",
					"maxclass" : "newobj",
					"numinlets" : 1,
					"numoutlets" : 1,
					"outlettype" : [ "tapconnect" ],
					"patching_rect" : [ 931.0, 569.0, 82.0, 22.0 ],
					"text" : "tapin~ 22000."
				}

			}
, 			{
				"box" : 				{
					"id" : "obj-6",
					"maxclass" : "newobj",
					"numinlets" : 2,
					"numoutlets" : 1,
					"outlettype" : [ "signal" ],
					"patching_rect" : [ 893.947360038757324, 631.666660785675049, 29.5, 22.0 ],
					"text" : "*~"
				}

			}
, 			{
				"box" : 				{
					"id" : "obj-29",
					"maxclass" : "message",
					"numinlets" : 2,
					"numoutlets" : 1,
					"outlettype" : [ "" ],
					"patching_rect" : [ 627.795087337493896, 854.34423828125, 31.0, 22.0 ],
					"text" : "stop"
				}

			}
, 			{
				"box" : 				{
					"id" : "obj-31",
					"maxclass" : "message",
					"numinlets" : 2,
					"numoutlets" : 1,
					"outlettype" : [ "" ],
					"patching_rect" : [ 627.795087337493896, 824.016370296478271, 72.0, 22.0 ],
					"text" : "startwindow"
				}

			}
, 			{
				"box" : 				{
					"id" : "obj-40",
					"maxclass" : "newobj",
					"numinlets" : 2,
					"numoutlets" : 1,
					"outlettype" : [ "signal" ],
					"patching_rect" : [ 701.66668713092804, 594.333350598812103, 29.5, 22.0 ],
					"text" : "*~"
				}

			}
, 			{
				"box" : 				{
					"id" : "obj-30",
					"linecount" : 2,
					"maxclass" : "comment",
					"numinlets" : 1,
					"numoutlets" : 0,
					"patching_rect" : [ 565.343136131763458, 67.730777978897095, 53.846160650253296, 33.0 ],
					"text" : "START/STOP"
				}

			}
, 			{
				"box" : 				{
					"id" : "obj-26",
					"maxclass" : "toggle",
					"numinlets" : 1,
					"numoutlets" : 1,
					"outlettype" : [ "int" ],
					"parameter_enable" : 0,
					"patching_rect" : [ 474.359034299850464, 39.358977437019348, 89.743601083755493, 89.743601083755493 ]
				}

			}
, 			{
				"box" : 				{
					"id" : "obj-75",
					"maxclass" : "newobj",
					"numinlets" : 1,
					"numoutlets" : 1,
					"outlettype" : [ "" ],
					"patching_rect" : [ 900.540788471698761, 196.297284126281738, 81.147538661956787, 22.0 ],
					"text" : "loadmess 72"
				}

			}
, 			{
				"box" : 				{
					"id" : "obj-74",
					"maxclass" : "comment",
					"numinlets" : 1,
					"numoutlets" : 0,
					"patching_rect" : [ 778.0, 519.000015020370483, 150.0, 20.0 ],
					"text" : "gibt ton aus"
				}

			}
, 			{
				"box" : 				{
					"id" : "obj-73",
					"maxclass" : "comment",
					"numinlets" : 1,
					"numoutlets" : 0,
					"patching_rect" : [ 769.0, 489.684206008911133, 150.0, 20.0 ],
					"text" : "wandelt midi zu freq. um"
				}

			}
, 			{
				"box" : 				{
					"id" : "obj-72",
					"maxclass" : "comment",
					"numinlets" : 1,
					"numoutlets" : 0,
					"patching_rect" : [ 769.0, 455.0, 150.0, 20.0 ],
					"text" : "speichert melodie/noten"
				}

			}
, 			{
				"box" : 				{
					"id" : "obj-71",
					"linecount" : 2,
					"maxclass" : "comment",
					"numinlets" : 1,
					"numoutlets" : 0,
					"patching_rect" : [ 769.0, 420.0, 150.0, 33.0 ],
					"text" : "zur kontrolle / noten abrufen"
				}

			}
, 			{
				"box" : 				{
					"id" : "obj-70",
					"linecount" : 2,
					"maxclass" : "comment",
					"numinlets" : 1,
					"numoutlets" : 0,
					"patching_rect" : [ 769.0, 385.5, 150.0, 33.0 ],
					"text" : "zählt von 1 bis 12 hoch; im tempo von metro"
				}

			}
, 			{
				"box" : 				{
					"id" : "obj-69",
					"maxclass" : "comment",
					"numinlets" : 1,
					"numoutlets" : 0,
					"patching_rect" : [ 766.322762966156006, 362.640216469764709, 150.0, 20.0 ],
					"text" : "für timing"
				}

			}
, 			{
				"box" : 				{
					"id" : "obj-68",
					"linecount" : 2,
					"maxclass" : "comment",
					"numinlets" : 1,
					"numoutlets" : 0,
					"patching_rect" : [ 766.322762966156006, 326.640216469764709, 150.0, 33.0 ],
					"text" : "2 mal /2 weil alle noten 1/16 sind"
				}

			}
, 			{
				"box" : 				{
					"id" : "obj-66",
					"maxclass" : "comment",
					"numinlets" : 1,
					"numoutlets" : 0,
					"patching_rect" : [ 766.476715326309204, 282.923102378845215, 150.0, 20.0 ],
					"text" : "zu ms pro viertel"
				}

			}
, 			{
				"box" : 				{
					"id" : "obj-64",
					"maxclass" : "comment",
					"numinlets" : 1,
					"numoutlets" : 0,
					"patching_rect" : [ 766.476715326309204, 254.46156120300293, 150.0, 20.0 ],
					"text" : "bpm"
				}

			}
, 			{
				"box" : 				{
					"id" : "obj-61",
					"maxclass" : "newobj",
					"numinlets" : 2,
					"numoutlets" : 1,
					"outlettype" : [ "float" ],
					"patching_rect" : [ 691.688590049743652, 332.140216469764709, 29.5, 22.0 ],
					"text" : "/ 4."
				}

			}
, 			{
				"box" : 				{
					"format" : 6,
					"id" : "obj-56",
					"maxclass" : "flonum",
					"numinlets" : 1,
					"numoutlets" : 2,
					"outlettype" : [ "", "bang" ],
					"parameter_enable" : 0,
					"patching_rect" : [ 691.923141479492188, 308.076951026916504, 50.0, 22.0 ]
				}

			}
, 			{
				"box" : 				{
					"id" : "obj-54",
					"maxclass" : "newobj",
					"numinlets" : 2,
					"numoutlets" : 1,
					"outlettype" : [ "float" ],
					"patching_rect" : [ 692.0, 281.923102378845215, 55.0, 22.0 ],
					"text" : "!/ 60000."
				}

			}
, 			{
				"box" : 				{
					"id" : "obj-53",
					"maxclass" : "number",
					"numinlets" : 1,
					"numoutlets" : 2,
					"outlettype" : [ "", "bang" ],
					"parameter_enable" : 0,
					"patching_rect" : [ 692.0, 253.46156120300293, 50.0, 22.0 ]
				}

			}
, 			{
				"box" : 				{
					"id" : "obj-50",
					"maxclass" : "newobj",
					"numinlets" : 1,
					"numoutlets" : 1,
					"outlettype" : [ "" ],
					"patching_rect" : [ 997.315479636192322, 196.297284126281738, 81.0, 22.0 ],
					"text" : "loadmess -20"
				}

			}
, 			{
				"box" : 				{
					"id" : "obj-41",
					"maxclass" : "number",
					"numinlets" : 1,
					"numoutlets" : 2,
					"outlettype" : [ "", "bang" ],
					"parameter_enable" : 0,
					"patching_rect" : [ 692.0, 420.0, 50.0, 22.0 ]
				}

			}
, 			{
				"box" : 				{
					"id" : "obj-39",
					"maxclass" : "newobj",
					"numinlets" : 5,
					"numoutlets" : 4,
					"outlettype" : [ "int", "", "", "int" ],
					"patching_rect" : [ 692.0, 391.0, 75.0, 22.0 ],
					"text" : "counter 1 12"
				}

			}
, 			{
				"box" : 				{
					"id" : "obj-38",
					"maxclass" : "newobj",
					"numinlets" : 2,
					"numoutlets" : 1,
					"outlettype" : [ "bang" ],
					"patching_rect" : [ 691.923141479492188, 361.640216469764709, 66.0, 22.0 ],
					"text" : "metro 500."
				}

			}
, 			{
				"box" : 				{
					"id" : "obj-37",
					"maxclass" : "message",
					"numinlets" : 2,
					"numoutlets" : 1,
					"outlettype" : [ "" ],
					"patching_rect" : [ 619.0, 385.5, 39.726024508476257, 22.0 ],
					"text" : "open"
				}

			}
, 			{
				"box" : 				{
					"id" : "obj-36",
					"maxclass" : "newobj",
					"numinlets" : 1,
					"numoutlets" : 4,
					"outlettype" : [ "", "", "", "" ],
					"patching_rect" : [ 692.0, 454.0, 72.0, 22.0 ],
					"saved_object_attributes" : 					{
						"embed" : 0,
						"precision" : 6
					}
,
					"text" : "coll melodie"
				}

			}
, 			{
				"box" : 				{
					"id" : "obj-35",
					"maxclass" : "newobj",
					"numinlets" : 1,
					"numoutlets" : 1,
					"outlettype" : [ "" ],
					"patching_rect" : [ 690.438590049743652, 488.684206008911133, 32.0, 22.0 ],
					"text" : "mtof"
				}

			}
, 			{
				"box" : 				{
					"id" : "obj-34",
					"maxclass" : "newobj",
					"numinlets" : 3,
					"numoutlets" : 1,
					"outlettype" : [ "signal" ],
					"patcher" : 					{
						"fileversion" : 1,
						"appversion" : 						{
							"major" : 9,
							"minor" : 0,
							"revision" : 7,
							"architecture" : "x64",
							"modernui" : 1
						}
,
						"classnamespace" : "box",
						"rect" : [ 59.0, 125.0, 1000.0, 780.0 ],
						"gridsize" : [ 15.0, 15.0 ],
						"boxes" : [ 							{
								"box" : 								{
									"id" : "obj-16",
									"maxclass" : "newobj",
									"numinlets" : 2,
									"numoutlets" : 1,
									"outlettype" : [ "float" ],
									"patching_rect" : [ 276.712308645248413, 102.05478709936142, 29.5, 22.0 ],
									"text" : "!- 1."
								}

							}
, 							{
								"box" : 								{
									"format" : 6,
									"id" : "obj-15",
									"maxclass" : "flonum",
									"numinlets" : 1,
									"numoutlets" : 2,
									"outlettype" : [ "", "bang" ],
									"parameter_enable" : 0,
									"patching_rect" : [ 328.863001346588135, 51.369859278202057, 50.0, 22.0 ]
								}

							}
, 							{
								"box" : 								{
									"format" : 6,
									"id" : "obj-13",
									"maxclass" : "flonum",
									"numinlets" : 1,
									"numoutlets" : 2,
									"outlettype" : [ "", "bang" ],
									"parameter_enable" : 0,
									"patching_rect" : [ 229.863001346588135, 56.164379477500916, 50.0, 22.0 ]
								}

							}
, 							{
								"box" : 								{
									"comment" : "",
									"id" : "obj-10",
									"index" : 3,
									"maxclass" : "inlet",
									"numinlets" : 0,
									"numoutlets" : 1,
									"outlettype" : [ "float" ],
									"patching_rect" : [ 328.863001346588135, 5.479451656341553, 30.0, 30.0 ]
								}

							}
, 							{
								"box" : 								{
									"id" : "obj-7",
									"maxclass" : "newobj",
									"numinlets" : 2,
									"numoutlets" : 1,
									"outlettype" : [ "" ],
									"patching_rect" : [ 230.136969566345215, 196.575328171253204, 129.0, 22.0 ],
									"text" : "sprintf 0.\\,1. %f1 0. %f2"
								}

							}
, 							{
								"box" : 								{
									"comment" : "",
									"id" : "obj-4",
									"index" : 2,
									"maxclass" : "inlet",
									"numinlets" : 0,
									"numoutlets" : 1,
									"outlettype" : [ "" ],
									"patching_rect" : [ 229.863001346588135, 5.479451656341553, 30.0, 30.0 ]
								}

							}
, 							{
								"box" : 								{
									"id" : "obj-11",
									"maxclass" : "message",
									"numinlets" : 2,
									"numoutlets" : 1,
									"outlettype" : [ "" ],
									"patching_rect" : [ 170.547932803630829, 226.712312281131744, 193.835602343082428, 22.0 ],
									"text" : "0., 1. 208.333333 0. 0."
								}

							}
, 							{
								"box" : 								{
									"id" : "obj-9",
									"maxclass" : "newobj",
									"numinlets" : 2,
									"numoutlets" : 1,
									"outlettype" : [ "signal" ],
									"patching_rect" : [ 51.0, 221.333339929580688, 29.5, 22.0 ],
									"text" : "*~"
								}

							}
, 							{
								"box" : 								{
									"id" : "obj-8",
									"maxclass" : "newobj",
									"numinlets" : 2,
									"numoutlets" : 2,
									"outlettype" : [ "signal", "bang" ],
									"patching_rect" : [ 170.547932803630829, 255.479433476924896, 34.0, 22.0 ],
									"text" : "line~"
								}

							}
, 							{
								"box" : 								{
									"id" : "obj-3",
									"maxclass" : "newobj",
									"numinlets" : 1,
									"numoutlets" : 2,
									"outlettype" : [ "float", "bang" ],
									"patching_rect" : [ 50.0, 60.000001788139343, 29.5, 22.0 ],
									"text" : "t f b"
								}

							}
, 							{
								"box" : 								{
									"comment" : "",
									"id" : "obj-2",
									"index" : 1,
									"maxclass" : "outlet",
									"numinlets" : 1,
									"numoutlets" : 0,
									"patching_rect" : [ 51.0, 260.666674435138702, 30.0, 30.0 ]
								}

							}
, 							{
								"box" : 								{
									"comment" : "",
									"id" : "obj-1",
									"index" : 1,
									"maxclass" : "inlet",
									"numinlets" : 0,
									"numoutlets" : 1,
									"outlettype" : [ "" ],
									"patching_rect" : [ 50.0, 23.0, 30.0, 30.0 ]
								}

							}
, 							{
								"box" : 								{
									"id" : "obj-33",
									"maxclass" : "newobj",
									"numinlets" : 2,
									"numoutlets" : 1,
									"outlettype" : [ "signal" ],
									"patching_rect" : [ 51.0, 176.0, 29.5, 22.0 ],
									"text" : "+~"
								}

							}
, 							{
								"box" : 								{
									"id" : "obj-32",
									"maxclass" : "newobj",
									"numinlets" : 2,
									"numoutlets" : 1,
									"outlettype" : [ "signal" ],
									"patching_rect" : [ 51.0, 135.0, 40.0, 22.0 ],
									"text" : "*~ 0.8"
								}

							}
, 							{
								"box" : 								{
									"id" : "obj-31",
									"maxclass" : "newobj",
									"numinlets" : 2,
									"numoutlets" : 1,
									"outlettype" : [ "signal" ],
									"patching_rect" : [ 50.0, 100.0, 43.0, 22.0 ],
									"text" : "cycle~"
								}

							}
, 							{
								"box" : 								{
									"id" : "obj-30",
									"maxclass" : "newobj",
									"numinlets" : 2,
									"numoutlets" : 1,
									"outlettype" : [ "signal" ],
									"patching_rect" : [ 105.0, 135.0, 40.0, 22.0 ],
									"text" : "*~ 0.2"
								}

							}
, 							{
								"box" : 								{
									"id" : "obj-29",
									"maxclass" : "newobj",
									"numinlets" : 2,
									"numoutlets" : 1,
									"outlettype" : [ "signal" ],
									"patching_rect" : [ 105.0, 100.0, 37.0, 22.0 ],
									"text" : "saw~"
								}

							}
 ],
						"lines" : [ 							{
								"patchline" : 								{
									"destination" : [ "obj-3", 0 ],
									"source" : [ "obj-1", 0 ]
								}

							}
, 							{
								"patchline" : 								{
									"destination" : [ "obj-15", 0 ],
									"source" : [ "obj-10", 0 ]
								}

							}
, 							{
								"patchline" : 								{
									"destination" : [ "obj-8", 0 ],
									"source" : [ "obj-11", 0 ]
								}

							}
, 							{
								"patchline" : 								{
									"destination" : [ "obj-16", 0 ],
									"order" : 0,
									"source" : [ "obj-13", 0 ]
								}

							}
, 							{
								"patchline" : 								{
									"destination" : [ "obj-7", 0 ],
									"order" : 1,
									"source" : [ "obj-13", 0 ]
								}

							}
, 							{
								"patchline" : 								{
									"destination" : [ "obj-16", 1 ],
									"source" : [ "obj-15", 0 ]
								}

							}
, 							{
								"patchline" : 								{
									"destination" : [ "obj-7", 1 ],
									"source" : [ "obj-16", 0 ]
								}

							}
, 							{
								"patchline" : 								{
									"destination" : [ "obj-30", 0 ],
									"source" : [ "obj-29", 0 ]
								}

							}
, 							{
								"patchline" : 								{
									"destination" : [ "obj-11", 0 ],
									"source" : [ "obj-3", 1 ]
								}

							}
, 							{
								"patchline" : 								{
									"destination" : [ "obj-29", 0 ],
									"order" : 0,
									"source" : [ "obj-3", 0 ]
								}

							}
, 							{
								"patchline" : 								{
									"destination" : [ "obj-31", 0 ],
									"order" : 1,
									"source" : [ "obj-3", 0 ]
								}

							}
, 							{
								"patchline" : 								{
									"destination" : [ "obj-33", 1 ],
									"source" : [ "obj-30", 0 ]
								}

							}
, 							{
								"patchline" : 								{
									"destination" : [ "obj-32", 0 ],
									"source" : [ "obj-31", 0 ]
								}

							}
, 							{
								"patchline" : 								{
									"destination" : [ "obj-33", 0 ],
									"source" : [ "obj-32", 0 ]
								}

							}
, 							{
								"patchline" : 								{
									"destination" : [ "obj-9", 0 ],
									"source" : [ "obj-33", 0 ]
								}

							}
, 							{
								"patchline" : 								{
									"destination" : [ "obj-13", 0 ],
									"source" : [ "obj-4", 0 ]
								}

							}
, 							{
								"patchline" : 								{
									"destination" : [ "obj-11", 1 ],
									"source" : [ "obj-7", 0 ]
								}

							}
, 							{
								"patchline" : 								{
									"destination" : [ "obj-9", 1 ],
									"source" : [ "obj-8", 0 ]
								}

							}
, 							{
								"patchline" : 								{
									"destination" : [ "obj-2", 0 ],
									"source" : [ "obj-9", 0 ]
								}

							}
 ]
					}
,
					"patching_rect" : [ 692.0, 519.000015020370483, 84.0, 22.0 ],
					"text" : "p simpleSynth"
				}

			}
, 			{
				"box" : 				{
					"id" : "obj-28",
					"linecount" : 4,
					"maxclass" : "comment",
					"numinlets" : 1,
					"numoutlets" : 0,
					"patching_rect" : [ 1403.846331238746643, 70.128212094306946, 153.0, 60.0 ],
					"text" : "ein bisschen unnötiges hardcoden, wollte aber visualisieren was ungefähr passiert "
				}

			}
, 			{
				"box" : 				{
					"id" : "obj-27",
					"linecount" : 4,
					"maxclass" : "comment",
					"numinlets" : 1,
					"numoutlets" : 0,
					"patching_rect" : [ 1252.564260840415955, 70.128212094306946, 154.0, 60.0 ],
					"text" : "schreibt die melodie in das buffer objekt, damit es später ausgelesen werden kann"
				}

			}
, 			{
				"box" : 				{
					"id" : "obj-25",
					"maxclass" : "newobj",
					"numinlets" : 2,
					"numoutlets" : 1,
					"outlettype" : [ "bang" ],
					"patching_rect" : [ 1179.48732852935791, 62.435903429985046, 35.0, 22.0 ],
					"text" : "del 1"
				}

			}
, 			{
				"box" : 				{
					"id" : "obj-24",
					"maxclass" : "message",
					"numinlets" : 2,
					"numoutlets" : 1,
					"outlettype" : [ "" ],
					"patching_rect" : [ 1179.48732852935791, 89.358983755111694, 57.0, 22.0 ],
					"text" : "sort -1 -1"
				}

			}
, 			{
				"box" : 				{
					"id" : "obj-22",
					"maxclass" : "newobj",
					"numinlets" : 1,
					"numoutlets" : 1,
					"outlettype" : [ "bang" ],
					"patching_rect" : [ 747.435991883277893, 39.358977437019348, 58.0, 22.0 ],
					"text" : "loadbang"
				}

			}
, 			{
				"box" : 				{
					"id" : "obj-21",
					"maxclass" : "message",
					"numinlets" : 2,
					"numoutlets" : 1,
					"outlettype" : [ "" ],
					"patching_rect" : [ 1134.615527987480164, 89.358983755111694, 39.0, 22.0 ],
					"text" : "12 61"
				}

			}
, 			{
				"box" : 				{
					"id" : "obj-20",
					"maxclass" : "message",
					"numinlets" : 2,
					"numoutlets" : 1,
					"outlettype" : [ "" ],
					"patching_rect" : [ 1094.871933221817017, 89.358983755111694, 38.0, 22.0 ],
					"text" : "11 62"
				}

			}
, 			{
				"box" : 				{
					"id" : "obj-19",
					"maxclass" : "message",
					"numinlets" : 2,
					"numoutlets" : 1,
					"outlettype" : [ "" ],
					"patching_rect" : [ 1053.84628701210022, 89.358983755111694, 39.0, 22.0 ],
					"text" : "10 54"
				}

			}
, 			{
				"box" : 				{
					"id" : "obj-18",
					"maxclass" : "message",
					"numinlets" : 2,
					"numoutlets" : 1,
					"outlettype" : [ "" ],
					"patching_rect" : [ 1020.512949466705322, 89.358983755111694, 32.0, 22.0 ],
					"text" : "9 59"
				}

			}
, 			{
				"box" : 				{
					"id" : "obj-17",
					"maxclass" : "message",
					"numinlets" : 2,
					"numoutlets" : 1,
					"outlettype" : [ "" ],
					"patching_rect" : [ 984.615509033203125, 89.358983755111694, 32.0, 22.0 ],
					"text" : "8 61"
				}

			}
, 			{
				"box" : 				{
					"id" : "obj-16",
					"maxclass" : "message",
					"numinlets" : 2,
					"numoutlets" : 1,
					"outlettype" : [ "" ],
					"patching_rect" : [ 951.282171487808228, 89.358983755111694, 32.0, 22.0 ],
					"text" : "7 52"
				}

			}
, 			{
				"box" : 				{
					"id" : "obj-15",
					"maxclass" : "message",
					"numinlets" : 2,
					"numoutlets" : 1,
					"outlettype" : [ "" ],
					"patching_rect" : [ 916.66678249835968, 89.358983755111694, 32.0, 22.0 ],
					"text" : "6 54"
				}

			}
, 			{
				"box" : 				{
					"id" : "obj-14",
					"maxclass" : "message",
					"numinlets" : 2,
					"numoutlets" : 1,
					"outlettype" : [ "" ],
					"patching_rect" : [ 883.333444952964783, 89.358983755111694, 32.0, 22.0 ],
					"text" : "5 62"
				}

			}
, 			{
				"box" : 				{
					"id" : "obj-13",
					"maxclass" : "message",
					"numinlets" : 2,
					"numoutlets" : 1,
					"outlettype" : [ "" ],
					"patching_rect" : [ 848.718055963516235, 89.358983755111694, 32.0, 22.0 ],
					"text" : "4 61"
				}

			}
, 			{
				"box" : 				{
					"id" : "obj-12",
					"maxclass" : "message",
					"numinlets" : 2,
					"numoutlets" : 1,
					"outlettype" : [ "" ],
					"patching_rect" : [ 815.384718418121338, 89.358983755111694, 32.0, 22.0 ],
					"text" : "3 59"
				}

			}
, 			{
				"box" : 				{
					"id" : "obj-10",
					"maxclass" : "message",
					"numinlets" : 2,
					"numoutlets" : 1,
					"outlettype" : [ "" ],
					"patching_rect" : [ 780.769329428672791, 89.358983755111694, 32.0, 22.0 ],
					"text" : "2 54"
				}

			}
, 			{
				"box" : 				{
					"id" : "obj-8",
					"maxclass" : "message",
					"numinlets" : 2,
					"numoutlets" : 1,
					"outlettype" : [ "" ],
					"patching_rect" : [ 747.435991883277893, 89.358983755111694, 32.0, 22.0 ],
					"text" : "1 52"
				}

			}
, 			{
				"box" : 				{
					"id" : "obj-5",
					"maxclass" : "message",
					"numinlets" : 2,
					"numoutlets" : 1,
					"outlettype" : [ "" ],
					"patching_rect" : [ 700.000088453292847, 89.358983755111694, 39.726024508476257, 22.0 ],
					"text" : "open"
				}

			}
, 			{
				"box" : 				{
					"id" : "obj-3",
					"maxclass" : "newobj",
					"numinlets" : 1,
					"numoutlets" : 4,
					"outlettype" : [ "", "", "", "" ],
					"patching_rect" : [ 747.435991883277893, 132.948732852935791, 72.0, 22.0 ],
					"saved_object_attributes" : 					{
						"embed" : 0,
						"precision" : 6
					}
,
					"text" : "coll melodie"
				}

			}
 ],
		"lines" : [ 			{
				"patchline" : 				{
					"destination" : [ "obj-3", 0 ],
					"midpoints" : [ 790.269329428672791, 114.0, 756.935991883277893, 114.0 ],
					"source" : [ "obj-10", 0 ]
				}

			}
, 			{
				"patchline" : 				{
					"destination" : [ "obj-102", 1 ],
					"midpoints" : [ 719.135249137878418, 864.0, 741.327872276306152, 864.0 ],
					"source" : [ "obj-101", 1 ]
				}

			}
, 			{
				"patchline" : 				{
					"destination" : [ "obj-102", 0 ],
					"midpoints" : [ 711.885249137878418, 864.0, 705.327872276306152, 864.0 ],
					"source" : [ "obj-101", 0 ]
				}

			}
, 			{
				"patchline" : 				{
					"destination" : [ "obj-39", 3 ],
					"midpoints" : [ 819.161518216133118, 240.0, 753.0, 240.0, 753.0, 357.0, 759.0, 357.0, 759.0, 384.0, 743.5, 384.0 ],
					"source" : [ "obj-103", 0 ]
				}

			}
, 			{
				"patchline" : 				{
					"destination" : [ "obj-93", 0 ],
					"midpoints" : [ 935.903500080108643, 444.0, 935.903500080108643, 444.0 ],
					"source" : [ "obj-11", 0 ]
				}

			}
, 			{
				"patchline" : 				{
					"destination" : [ "obj-3", 0 ],
					"midpoints" : [ 824.884718418121338, 114.0, 756.935991883277893, 114.0 ],
					"source" : [ "obj-12", 0 ]
				}

			}
, 			{
				"patchline" : 				{
					"destination" : [ "obj-3", 0 ],
					"midpoints" : [ 858.218055963516235, 129.0, 756.935991883277893, 129.0 ],
					"source" : [ "obj-13", 0 ]
				}

			}
, 			{
				"patchline" : 				{
					"destination" : [ "obj-3", 0 ],
					"midpoints" : [ 892.833444952964783, 129.0, 756.935991883277893, 129.0 ],
					"source" : [ "obj-14", 0 ]
				}

			}
, 			{
				"patchline" : 				{
					"destination" : [ "obj-3", 0 ],
					"midpoints" : [ 926.16678249835968, 129.0, 756.935991883277893, 129.0 ],
					"source" : [ "obj-15", 0 ]
				}

			}
, 			{
				"patchline" : 				{
					"destination" : [ "obj-3", 0 ],
					"midpoints" : [ 960.782171487808228, 129.0, 756.935991883277893, 129.0 ],
					"source" : [ "obj-16", 0 ]
				}

			}
, 			{
				"patchline" : 				{
					"destination" : [ "obj-3", 0 ],
					"midpoints" : [ 994.115509033203125, 129.0, 756.935991883277893, 129.0 ],
					"source" : [ "obj-17", 0 ]
				}

			}
, 			{
				"patchline" : 				{
					"destination" : [ "obj-3", 0 ],
					"midpoints" : [ 1030.012949466705322, 129.0, 756.935991883277893, 129.0 ],
					"source" : [ "obj-18", 0 ]
				}

			}
, 			{
				"patchline" : 				{
					"destination" : [ "obj-3", 0 ],
					"midpoints" : [ 1063.34628701210022, 129.0, 756.935991883277893, 129.0 ],
					"source" : [ "obj-19", 0 ]
				}

			}
, 			{
				"patchline" : 				{
					"destination" : [ "obj-3", 0 ],
					"midpoints" : [ 1104.371933221817017, 129.0, 756.935991883277893, 129.0 ],
					"source" : [ "obj-20", 0 ]
				}

			}
, 			{
				"patchline" : 				{
					"destination" : [ "obj-3", 0 ],
					"midpoints" : [ 1144.115527987480164, 129.0, 756.935991883277893, 129.0 ],
					"source" : [ "obj-21", 0 ]
				}

			}
, 			{
				"patchline" : 				{
					"destination" : [ "obj-10", 0 ],
					"midpoints" : [ 756.935991883277893, 75.0, 790.269329428672791, 75.0 ],
					"order" : 11,
					"source" : [ "obj-22", 0 ]
				}

			}
, 			{
				"patchline" : 				{
					"destination" : [ "obj-12", 0 ],
					"midpoints" : [ 756.935991883277893, 75.0, 824.884718418121338, 75.0 ],
					"order" : 10,
					"source" : [ "obj-22", 0 ]
				}

			}
, 			{
				"patchline" : 				{
					"destination" : [ "obj-13", 0 ],
					"midpoints" : [ 756.935991883277893, 75.0, 858.218055963516235, 75.0 ],
					"order" : 9,
					"source" : [ "obj-22", 0 ]
				}

			}
, 			{
				"patchline" : 				{
					"destination" : [ "obj-14", 0 ],
					"midpoints" : [ 756.935991883277893, 75.0, 892.833444952964783, 75.0 ],
					"order" : 8,
					"source" : [ "obj-22", 0 ]
				}

			}
, 			{
				"patchline" : 				{
					"destination" : [ "obj-15", 0 ],
					"midpoints" : [ 756.935991883277893, 75.0, 926.16678249835968, 75.0 ],
					"order" : 7,
					"source" : [ "obj-22", 0 ]
				}

			}
, 			{
				"patchline" : 				{
					"destination" : [ "obj-16", 0 ],
					"midpoints" : [ 756.935991883277893, 75.0, 960.782171487808228, 75.0 ],
					"order" : 6,
					"source" : [ "obj-22", 0 ]
				}

			}
, 			{
				"patchline" : 				{
					"destination" : [ "obj-17", 0 ],
					"midpoints" : [ 756.935991883277893, 75.0, 994.115509033203125, 75.0 ],
					"order" : 5,
					"source" : [ "obj-22", 0 ]
				}

			}
, 			{
				"patchline" : 				{
					"destination" : [ "obj-18", 0 ],
					"midpoints" : [ 756.935991883277893, 75.0, 1030.012949466705322, 75.0 ],
					"order" : 4,
					"source" : [ "obj-22", 0 ]
				}

			}
, 			{
				"patchline" : 				{
					"destination" : [ "obj-19", 0 ],
					"midpoints" : [ 756.935991883277893, 75.0, 1063.34628701210022, 75.0 ],
					"order" : 3,
					"source" : [ "obj-22", 0 ]
				}

			}
, 			{
				"patchline" : 				{
					"destination" : [ "obj-20", 0 ],
					"midpoints" : [ 756.935991883277893, 75.0, 1104.371933221817017, 75.0 ],
					"order" : 2,
					"source" : [ "obj-22", 0 ]
				}

			}
, 			{
				"patchline" : 				{
					"destination" : [ "obj-21", 0 ],
					"midpoints" : [ 756.935991883277893, 75.0, 1144.115527987480164, 75.0 ],
					"order" : 1,
					"source" : [ "obj-22", 0 ]
				}

			}
, 			{
				"patchline" : 				{
					"destination" : [ "obj-25", 0 ],
					"midpoints" : [ 756.935991883277893, 72.0, 1164.0, 72.0, 1164.0, 57.0, 1188.98732852935791, 57.0 ],
					"order" : 0,
					"source" : [ "obj-22", 0 ]
				}

			}
, 			{
				"patchline" : 				{
					"destination" : [ "obj-8", 0 ],
					"midpoints" : [ 756.935991883277893, 63.0, 756.935991883277893, 63.0 ],
					"order" : 12,
					"source" : [ "obj-22", 0 ]
				}

			}
, 			{
				"patchline" : 				{
					"destination" : [ "obj-3", 0 ],
					"midpoints" : [ 1188.98732852935791, 129.0, 756.935991883277893, 129.0 ],
					"source" : [ "obj-24", 0 ]
				}

			}
, 			{
				"patchline" : 				{
					"destination" : [ "obj-24", 0 ],
					"midpoints" : [ 1188.98732852935791, 87.0, 1188.98732852935791, 87.0 ],
					"source" : [ "obj-25", 0 ]
				}

			}
, 			{
				"patchline" : 				{
					"destination" : [ "obj-38", 0 ],
					"midpoints" : [ 483.859034299850464, 357.0, 701.423141479492188, 357.0 ],
					"order" : 4,
					"source" : [ "obj-26", 0 ]
				}

			}
, 			{
				"patchline" : 				{
					"destination" : [ "obj-40", 1 ],
					"midpoints" : [ 483.859034299850464, 516.0, 675.0, 516.0, 675.0, 579.0, 721.66668713092804, 579.0 ],
					"order" : 3,
					"source" : [ "obj-26", 0 ]
				}

			}
, 			{
				"patchline" : 				{
					"destination" : [ "obj-47", 0 ],
					"midpoints" : [ 483.859034299850464, 240.0, 935.058106184005737, 240.0 ],
					"order" : 1,
					"source" : [ "obj-26", 0 ]
				}

			}
, 			{
				"patchline" : 				{
					"destination" : [ "obj-6", 1 ],
					"midpoints" : [ 483.859034299850464, 516.0, 675.0, 516.0, 675.0, 579.0, 876.0, 579.0, 876.0, 627.0, 913.947360038757324, 627.0 ],
					"order" : 2,
					"source" : [ "obj-26", 0 ]
				}

			}
, 			{
				"patchline" : 				{
					"destination" : [ "obj-65", 1 ],
					"midpoints" : [ 483.859034299850464, 240.0, 753.0, 240.0, 753.0, 312.0, 921.0, 312.0, 921.0, 330.0, 946.403500080108643, 330.0 ],
					"order" : 0,
					"source" : [ "obj-26", 0 ]
				}

			}
, 			{
				"patchline" : 				{
					"destination" : [ "obj-76", 0 ],
					"midpoints" : [ 483.859034299850464, 177.0, 586.325040280818939, 177.0 ],
					"order" : 5,
					"source" : [ "obj-26", 0 ]
				}

			}
, 			{
				"patchline" : 				{
					"destination" : [ "obj-102", 0 ],
					"midpoints" : [ 637.295087337493896, 879.0, 681.0, 879.0, 681.0, 873.0, 705.327872276306152, 873.0 ],
					"source" : [ "obj-29", 0 ]
				}

			}
, 			{
				"patchline" : 				{
					"destination" : [ "obj-102", 0 ],
					"midpoints" : [ 637.295087337493896, 849.0, 669.0, 849.0, 669.0, 864.0, 705.327872276306152, 864.0 ],
					"source" : [ "obj-31", 0 ]
				}

			}
, 			{
				"patchline" : 				{
					"destination" : [ "obj-40", 0 ],
					"midpoints" : [ 701.5, 579.0, 711.16668713092804, 579.0 ],
					"order" : 1,
					"source" : [ "obj-34", 0 ]
				}

			}
, 			{
				"patchline" : 				{
					"destination" : [ "obj-92", 0 ],
					"midpoints" : [ 701.5, 555.0, 940.5, 555.0 ],
					"order" : 0,
					"source" : [ "obj-34", 0 ]
				}

			}
, 			{
				"patchline" : 				{
					"destination" : [ "obj-34", 0 ],
					"midpoints" : [ 699.938590049743652, 513.0, 701.5, 513.0 ],
					"source" : [ "obj-35", 0 ]
				}

			}
, 			{
				"patchline" : 				{
					"destination" : [ "obj-35", 0 ],
					"midpoints" : [ 701.5, 477.0, 699.938590049743652, 477.0 ],
					"source" : [ "obj-36", 0 ]
				}

			}
, 			{
				"patchline" : 				{
					"destination" : [ "obj-36", 0 ],
					"midpoints" : [ 628.5, 450.0, 701.5, 450.0 ],
					"source" : [ "obj-37", 0 ]
				}

			}
, 			{
				"patchline" : 				{
					"destination" : [ "obj-39", 0 ],
					"midpoints" : [ 701.423141479492188, 384.0, 701.5, 384.0 ],
					"source" : [ "obj-38", 0 ]
				}

			}
, 			{
				"patchline" : 				{
					"destination" : [ "obj-41", 0 ],
					"midpoints" : [ 701.5, 414.0, 701.5, 414.0 ],
					"source" : [ "obj-39", 0 ]
				}

			}
, 			{
				"patchline" : 				{
					"destination" : [ "obj-101", 0 ],
					"midpoints" : [ 711.16668713092804, 618.0, 711.885249137878418, 618.0 ],
					"source" : [ "obj-40", 0 ]
				}

			}
, 			{
				"patchline" : 				{
					"destination" : [ "obj-36", 0 ],
					"midpoints" : [ 701.5, 444.0, 701.5, 444.0 ],
					"source" : [ "obj-41", 0 ]
				}

			}
, 			{
				"patchline" : 				{
					"destination" : [ "obj-51", 0 ],
					"midpoints" : [ 935.058106184005737, 306.0, 935.903500080108643, 306.0 ],
					"source" : [ "obj-46", 0 ]
				}

			}
, 			{
				"patchline" : 				{
					"destination" : [ "obj-46", 0 ],
					"midpoints" : [ 935.058106184005737, 276.0, 935.058106184005737, 276.0 ],
					"source" : [ "obj-47", 0 ]
				}

			}
, 			{
				"patchline" : 				{
					"destination" : [ "obj-49", 0 ],
					"midpoints" : [ 544.432881414890289, 570.0, 544.432881414890289, 570.0 ],
					"source" : [ "obj-48", 0 ]
				}

			}
, 			{
				"patchline" : 				{
					"destination" : [ "obj-52", 0 ],
					"midpoints" : [ 544.432881414890289, 597.0, 544.432881414890289, 597.0 ],
					"source" : [ "obj-49", 0 ]
				}

			}
, 			{
				"patchline" : 				{
					"destination" : [ "obj-3", 0 ],
					"midpoints" : [ 709.500088453292847, 129.0, 756.935991883277893, 129.0 ],
					"source" : [ "obj-5", 0 ]
				}

			}
, 			{
				"patchline" : 				{
					"destination" : [ "obj-101", 0 ],
					"midpoints" : [ 1006.815479636192322, 240.0, 675.0, 240.0, 675.0, 624.0, 696.0, 624.0, 696.0, 678.0, 711.885249137878418, 678.0 ],
					"source" : [ "obj-50", 0 ]
				}

			}
, 			{
				"patchline" : 				{
					"destination" : [ "obj-65", 0 ],
					"midpoints" : [ 935.903500080108643, 333.0, 935.903500080108643, 333.0 ],
					"source" : [ "obj-51", 0 ]
				}

			}
, 			{
				"patchline" : 				{
					"destination" : [ "obj-34", 1 ],
					"midpoints" : [ 544.432881414890289, 624.0, 519.0, 624.0, 519.0, 516.0, 734.0, 516.0 ],
					"source" : [ "obj-52", 0 ]
				}

			}
, 			{
				"patchline" : 				{
					"destination" : [ "obj-54", 0 ],
					"midpoints" : [ 701.5, 276.0, 701.5, 276.0 ],
					"source" : [ "obj-53", 0 ]
				}

			}
, 			{
				"patchline" : 				{
					"destination" : [ "obj-56", 0 ],
					"midpoints" : [ 701.5, 306.0, 701.423141479492188, 306.0 ],
					"source" : [ "obj-54", 0 ]
				}

			}
, 			{
				"patchline" : 				{
					"destination" : [ "obj-98", 0 ],
					"midpoints" : [ 940.403500080108643, 555.0, 899.93858814239502, 555.0 ],
					"source" : [ "obj-55", 0 ]
				}

			}
, 			{
				"patchline" : 				{
					"destination" : [ "obj-61", 0 ],
					"midpoints" : [ 701.423141479492188, 333.0, 701.188590049743652, 333.0 ],
					"source" : [ "obj-56", 0 ]
				}

			}
, 			{
				"patchline" : 				{
					"destination" : [ "obj-55", 0 ],
					"midpoints" : [ 935.903500080108643, 513.0, 940.403500080108643, 513.0 ],
					"source" : [ "obj-59", 0 ]
				}

			}
, 			{
				"patchline" : 				{
					"destination" : [ "obj-101", 1 ],
					"midpoints" : [ 903.447360038757324, 678.0, 740.885249137878418, 678.0 ],
					"source" : [ "obj-6", 0 ]
				}

			}
, 			{
				"patchline" : 				{
					"destination" : [ "obj-34", 2 ],
					"midpoints" : [ 701.188590049743652, 357.0, 675.0, 357.0, 675.0, 516.0, 766.5, 516.0 ],
					"order" : 1,
					"source" : [ "obj-61", 0 ]
				}

			}
, 			{
				"patchline" : 				{
					"destination" : [ "obj-38", 1 ],
					"midpoints" : [ 701.188590049743652, 357.0, 748.423141479492188, 357.0 ],
					"order" : 2,
					"source" : [ "obj-61", 0 ]
				}

			}
, 			{
				"patchline" : 				{
					"destination" : [ "obj-49", 4 ],
					"midpoints" : [ 701.188590049743652, 357.0, 669.0, 357.0, 669.0, 567.0, 618.293316471576645, 567.0 ],
					"order" : 3,
					"source" : [ "obj-61", 0 ]
				}

			}
, 			{
				"patchline" : 				{
					"destination" : [ "obj-93", 1 ],
					"midpoints" : [ 701.188590049743652, 357.0, 753.0, 357.0, 753.0, 312.0, 921.0, 312.0, 921.0, 447.0, 946.403500080108643, 447.0 ],
					"order" : 0,
					"source" : [ "obj-61", 0 ]
				}

			}
, 			{
				"patchline" : 				{
					"destination" : [ "obj-48", 0 ],
					"midpoints" : [ 637.295087337493896, 372.0, 544.432881414890289, 372.0 ],
					"source" : [ "obj-63", 0 ]
				}

			}
, 			{
				"patchline" : 				{
					"destination" : [ "obj-89", 0 ],
					"midpoints" : [ 935.903500080108643, 360.0, 935.903500080108643, 360.0 ],
					"source" : [ "obj-65", 0 ]
				}

			}
, 			{
				"patchline" : 				{
					"destination" : [ "obj-53", 0 ],
					"midpoints" : [ 910.040788471698761, 240.0, 701.5, 240.0 ],
					"source" : [ "obj-75", 0 ]
				}

			}
, 			{
				"patchline" : 				{
					"destination" : [ "obj-103", 0 ],
					"midpoints" : [ 586.325040280818939, 231.0, 804.0, 231.0, 804.0, 192.0, 819.161518216133118, 192.0 ],
					"order" : 2,
					"source" : [ "obj-76", 0 ]
				}

			}
, 			{
				"patchline" : 				{
					"destination" : [ "obj-33", 0 ],
					"midpoints" : [ 586.325040280818939, 231.0, 714.0, 231.0, 714.0, 192.0, 727.418001174926758, 192.0 ],
					"order" : 3,
					"source" : [ "obj-76", 0 ]
				}

			}
, 			{
				"patchline" : 				{
					"destination" : [ "obj-50", 0 ],
					"midpoints" : [ 586.325040280818939, 231.0, 993.0, 231.0, 993.0, 192.0, 1006.815479636192322, 192.0 ],
					"order" : 0,
					"source" : [ "obj-76", 0 ]
				}

			}
, 			{
				"patchline" : 				{
					"destination" : [ "obj-63", 0 ],
					"midpoints" : [ 586.325040280818939, 231.0, 624.0, 231.0, 624.0, 192.0, 637.295087337493896, 192.0 ],
					"order" : 4,
					"source" : [ "obj-76", 0 ]
				}

			}
, 			{
				"patchline" : 				{
					"destination" : [ "obj-75", 0 ],
					"midpoints" : [ 586.325040280818939, 231.0, 897.0, 231.0, 897.0, 192.0, 910.040788471698761, 192.0 ],
					"order" : 1,
					"source" : [ "obj-76", 0 ]
				}

			}
, 			{
				"patchline" : 				{
					"destination" : [ "obj-3", 0 ],
					"midpoints" : [ 756.935991883277893, 114.0, 756.935991883277893, 114.0 ],
					"source" : [ "obj-8", 0 ]
				}

			}
, 			{
				"patchline" : 				{
					"destination" : [ "obj-11", 0 ],
					"midpoints" : [ 935.903500080108643, 414.0, 935.903500080108643, 414.0 ],
					"source" : [ "obj-89", 0 ]
				}

			}
, 			{
				"patchline" : 				{
					"destination" : [ "obj-98", 0 ],
					"midpoints" : [ 940.5, 594.0, 900.0, 594.0, 900.0, 600.0, 899.93858814239502, 600.0 ],
					"source" : [ "obj-92", 0 ]
				}

			}
, 			{
				"patchline" : 				{
					"destination" : [ "obj-59", 0 ],
					"midpoints" : [ 935.903500080108643, 477.0, 935.903500080108643, 477.0 ],
					"source" : [ "obj-93", 0 ]
				}

			}
, 			{
				"patchline" : 				{
					"destination" : [ "obj-6", 0 ],
					"midpoints" : [ 899.93858814239502, 627.0, 903.447360038757324, 627.0 ],
					"source" : [ "obj-98", 0 ]
				}

			}
 ],
		"parameters" : 		{
			"obj-101" : [ "live.gain~[2]", "live.gain~", 0 ],
			"parameterbanks" : 			{
				"0" : 				{
					"index" : 0,
					"name" : "",
					"parameters" : [ "-", "-", "-", "-", "-", "-", "-", "-" ]
				}

			}
,
			"inherited_shortname" : 1
		}
,
		"dependency_cache" : [  ],
		"autosave" : 0
	}

}
