#N canvas 827 239 527 327 12;
#X obj 448 559 cycle~;
#X obj 448 631 *~;
#X obj 539 313 vsl 22 128 0 200 0 0 empty empty empty 0 -9 0 10 #333333 #eeeeee #e4e4e4 0 1;
#X floatatom 537 455 5 0 0 0 - - - 12;
#X obj 448 501 +~, f 9;
#X obj 259 77 keyboard 16 80 4 2 0 0 empty empty;
#X floatatom 259 185 5 0 0 0 - - - 12;
#X obj 259 214 mtof;
#X floatatom 259 249 5 0 0 0 - - - 12;
#X obj 259 280 s carrier;
#X obj 485 344 inlet;
#X obj 378 344 inlet;
#X obj 633 313 vsl 22 128 -1 1 0 0 empty empty empty 0 -9 0 10 #333333 #eeeeee #e4e4e4 0 1;
#X floatatom 631 455 5 0 0 0 - - - 12;
#X floatatom 485 371 5 0 0 0 - - - 12;
#X floatatom 378 394 5 0 0 0 - - - 12;
#X obj 429 344 inlet;
#X obj 418 455 + 0;
#X text 538 280 index;
#X text 633 280 phase;
#X obj 725 313 vsl 22 128 -1 1 0 0 empty empty empty 0 -9 0 10 #333333 #eeeeee #e4e4e4 0 1;
#X floatatom 723 455 5 0 0 0 - - - 12;
#X obj 561 573 cycle~;
#X obj 448 673 *~;
#X obj 449 763 gain~ 1 0 20 0 0;
#A saved;
#X obj 444 934 dac~;
#X obj 596 720 adsr~;
#X obj 596 625 tgl 25 0 empty empty empty 17 7 0 10 #333333 #eeeeee #e4e4e4 0 1;
#X obj 596 660 sig~;
#X floatatom 612 685 5 0 0 0 - - - 12;
#X floatatom 653 685 5 0 0 0 - - - 12;
#X floatatom 710 685 5 0 0 0 - - - 12;
#X floatatom 756 685 5 0 0 0 - - - 12;
#X floatatom 815 685 5 0 0 0 - - - 12;
#X obj 448 720 *~;
#X connect 0 0 1 0;
#X connect 1 0 23 0;
#X connect 2 0 3 0;
#X connect 3 0 1 1;
#X connect 4 0 0 0;
#X connect 5 0 6 0;
#X connect 6 0 7 0;
#X connect 7 0 8 0;
#X connect 8 0 9 0;
#X connect 10 0 14 0;
#X connect 11 0 15 0;
#X connect 12 0 13 0;
#X connect 13 0 0 1;
#X connect 14 0 4 1;
#X connect 15 0 17 0;
#X connect 16 0 17 1;
#X connect 17 0 4 0;
#X connect 20 0 21 0;
#X connect 21 0 22 0;
#X connect 22 0 23 1;
#X connect 23 0 34 0;
#X connect 24 0 25 0;
#X connect 24 0 25 1;
#X connect 26 0 34 1;
#X connect 27 0 28 0;
#X connect 28 0 26 0;
#X connect 29 0 26 1;
#X connect 30 0 26 2;
#X connect 31 0 26 3;
#X connect 32 0 26 4;
#X connect 33 0 26 5;
#X connect 34 0 24 0;
