#N canvas 827 239 527 327 12;
#X obj 374 159 cycle~;
#X floatatom 374 99 6 0 0 0 - - - 12;
#X obj 301 316 cycle~;
#X text 431 93 mod FREQ;
#X text 431 157 mod OSC;
#X obj 301 271 +~;
#X floatatom 301 99 5 0 0 0 - - - 12;
#X text 210 97 carrier FREQ;
#X obj 306 359 gain2~ 1 0 20 0 0;
#A saved;
#X obj 301 481 dac~, f 5;
#X obj 374 226 *~;
#X floatatom 431 193 5 0 0 0 - - - 12;
#X obj 384 359 scope~ 194 102 256 3 128 -1 1 0 0 0 0 238 238 238 51 51 51 105 105 105 0 empty;
#X connect 0 0 10 0;
#X connect 1 0 0 0 32.................U.........PE.........nB....;
#X connect 2 0 8 0 32.................M....7++++eC....+++++mA....;
#X connect 2 0 8 1 32.................M....3....PC....N....jA....;
#X connect 2 0 12 0;
#X connect 5 0 2 0 32.................M.........PC.........nA....;
#X connect 6 0 5 0 32.................5.........fN.........LG....;
#X connect 8 0 9 0 32.................J....D....fB....A....LA....;
#X connect 8 1 9 1 32.................J....n....fB....J....LA....;
#X connect 10 0 5 1;
#X connect 11 0 10 1;
